<svg width="13" height="12" viewBox="0 0 13 12" fill="none" xmlns="http://www.w3.org/2000/svg">
<path d="M10.5845 7.89787C10.5322 7.95031 10.4701 7.99191 10.4017 8.0203C10.3334 8.04869 10.2601 8.06331 10.186 8.06331C10.112 8.06331 10.0387 8.04869 9.97032 8.0203C9.90195 7.99191 9.83985 7.95031 9.7876 7.89787L6.4365 4.54677L3.08447 7.89787C2.9788 8.00354 2.83548 8.0629 2.68603 8.0629C2.53659 8.0629 2.39327 8.00354 2.2876 7.89787C2.18192 7.79219 2.12256 7.64887 2.12256 7.49943C2.12256 7.34998 2.18192 7.20666 2.2876 7.10099L6.0376 3.35099C6.08985 3.29855 6.15195 3.25694 6.22032 3.22855C6.2887 3.20016 6.362 3.18555 6.43603 3.18555C6.51007 3.18555 6.58337 3.20016 6.65174 3.22855C6.72012 3.25694 6.78221 3.29855 6.83447 3.35099L10.5845 7.10099C10.6369 7.15325 10.6785 7.21534 10.7069 7.28372C10.7353 7.35209 10.7499 7.4254 10.7499 7.49943C10.7499 7.57346 10.7353 7.64677 10.7069 7.71514C10.6785 7.78351 10.6369 7.84561 10.5845 7.89787Z" fill="#080809"/>
</svg>
