<svg width="109" height="16" viewBox="0 0 109 16" fill="none" xmlns="http://www.w3.org/2000/svg">
<path d="M102.798 0.0078125C103.489 0.0078125 104.245 0.0863948 105.072 0.245117C105.9 0.403769 106.807 0.680364 107.793 1.07324C107.774 1.40936 107.732 1.723 107.676 2.01758C107.615 2.31208 107.544 2.6141 107.453 2.91992C107.366 3.22589 107.256 3.55171 107.128 3.89551C107 4.2392 106.848 4.62814 106.671 5.0625C106.002 4.7867 105.378 4.58649 104.808 4.45801C104.237 4.32959 103.742 4.26562 103.331 4.26562C102.681 4.26563 102.13 4.36325 101.677 4.55957C101.223 4.75605 100.859 5.02496 100.584 5.35742C100.308 5.69359 100.104 6.0826 99.9795 6.52441C99.8512 6.96632 99.7862 7.42728 99.7861 7.89941C99.7861 9.21791 100.074 10.1891 100.645 10.8125C101.215 11.4321 102.054 11.7422 103.157 11.7422H103.689V7.39746C104.18 7.29922 104.619 7.23103 105.005 7.18945C105.39 7.15173 105.756 7.12892 106.111 7.12891C106.799 7.12891 107.619 7.21599 108.563 7.39355V14.9004C107.993 15.1158 107.192 15.3544 106.168 15.6113C105.137 15.8719 103.947 16 102.587 16C101.166 16 99.9604 15.7884 98.9668 15.3652C97.9733 14.942 97.1576 14.3639 96.5303 13.6348C95.8992 12.9057 95.442 12.0484 95.1553 11.0625C94.8678 10.0764 94.7285 9.02146 94.7285 7.89941C94.7286 6.8152 94.9014 5.79132 95.2451 4.82422C95.5888 3.85721 96.1034 3.02269 96.7832 2.3125C97.4631 1.60221 98.3057 1.04256 99.3105 0.626953C100.315 0.211381 101.479 0.0078568 102.798 0.0078125ZM22.7256 0C23.7492 2.54154e-05 24.6747 0.12464 25.502 0.370117C26.3294 0.615675 27.0324 0.997784 27.6143 1.50781C28.1959 2.02147 28.6417 2.67481 28.959 3.47168C29.2725 4.26876 29.4316 5.22115 29.4316 6.32422V14.9844C28.6836 15.1998 27.7764 15.4184 26.7109 15.6338C25.6456 15.8491 24.5233 15.959 23.3408 15.959C22.3171 15.959 21.376 15.8638 20.5186 15.6787C19.6612 15.4898 18.9284 15.1918 18.3164 14.7764C17.7045 14.3609 17.2285 13.8166 16.8848 13.1367C16.5485 12.468 16.374 11.6365 16.374 10.6504C16.374 9.68696 16.5823 8.88579 16.9941 8.25488C17.4096 7.62423 17.9384 7.12201 18.5879 6.74805C19.2376 6.37408 19.9557 6.11323 20.7451 5.96582C21.5346 5.81853 22.3019 5.74319 23.0498 5.74316H24.8525C24.8336 5.38804 24.7352 5.09247 24.5576 4.85449C24.3801 4.6166 24.1536 4.43507 23.8779 4.30664C23.6022 4.17829 23.296 4.09214 22.96 4.04297C22.6238 3.99391 22.2798 3.96682 21.9248 3.9668C21.4525 3.9668 20.9005 4.02031 20.2695 4.12988C19.6387 4.23945 18.9889 4.40951 18.3203 4.64746C18.1427 4.31124 17.9918 4.00807 17.8633 3.72852C17.735 3.45287 17.6363 3.17369 17.5684 2.88672C17.5003 2.59971 17.4511 2.30492 17.4209 1.99902C17.3907 1.69305 17.376 1.34495 17.376 0.948242C18.3204 0.63476 19.2614 0.39691 20.1982 0.238281C21.135 0.0796736 21.9777 0 22.7256 0ZM39.6016 0.0146484C40.5081 0.0146607 41.3957 0.0986144 42.2607 0.268555C43.1259 0.434855 43.9043 0.74069 44.5957 1.18652C45.2833 1.62853 45.8425 2.24036 46.2656 3.01855C46.6887 3.79688 46.9004 4.8058 46.9004 6.04883C46.9004 7.17075 46.7076 8.11881 46.3223 8.88574C45.9369 9.65266 45.4307 10.2768 44.7998 10.749C44.1691 11.2211 43.4551 11.5608 42.6582 11.7686C41.861 11.9764 41.0481 12.0781 40.2207 12.0781C39.8845 12.0781 39.6013 12.0668 39.3633 12.0479C39.1253 12.0289 38.9776 12.0109 38.9209 11.9883V15.6221C38.4072 15.7203 37.95 15.7852 37.5459 15.8154C37.1418 15.8457 36.783 15.8603 36.4658 15.8604C36.1295 15.8604 35.7701 15.8457 35.3848 15.8154C34.9994 15.7852 34.5538 15.7203 34.04 15.6221V0.426758H34.0479C34.9545 0.290792 35.8841 0.185174 36.8398 0.117188C37.7956 0.0492056 38.7176 0.0146484 39.6016 0.0146484ZM56.332 0.0146484C57.2387 0.0146636 58.127 0.0985857 58.9922 0.268555C59.8572 0.434876 60.6351 0.740787 61.3262 1.18652C62.0136 1.62854 62.5728 2.24035 62.9961 3.01855C63.4194 3.79688 63.6309 4.8058 63.6309 6.04883C63.6308 7.17062 63.4386 8.11885 63.0537 8.88574C62.668 9.65266 62.1614 10.2768 61.5303 10.749C60.8992 11.2211 60.1853 11.5608 59.3877 11.7686C58.5909 11.9763 57.7785 12.0781 56.9512 12.0781C56.615 12.0781 56.3317 12.0668 56.0938 12.0479C55.8557 12.0289 55.708 12.0109 55.6514 11.9883V15.6221C55.1376 15.7203 54.6806 15.7852 54.2764 15.8154C53.8724 15.8457 53.5135 15.8603 53.1963 15.8604C52.8601 15.8604 52.5005 15.8457 52.1152 15.8154C51.7299 15.7852 51.2842 15.7203 50.7705 15.6221V0.426758H50.7783C51.685 0.290795 52.6146 0.185173 53.5703 0.117188C54.5261 0.0492078 55.4481 0.0146484 56.332 0.0146484ZM70.0195 0.0986328C70.3932 0.0986354 70.7979 0.116704 71.2324 0.158203C71.6668 0.199769 72.0899 0.268031 72.501 0.366211V15.6182C71.9877 15.6975 71.527 15.7544 71.1113 15.7959C70.6956 15.8337 70.3217 15.8564 69.9893 15.8564C69.6532 15.8564 69.279 15.8374 68.8672 15.7959C68.4522 15.7544 67.9984 15.6975 67.5068 15.6182V0.366211C67.9413 0.26798 68.3687 0.199778 68.792 0.158203C69.2151 0.120474 69.6226 0.0986328 70.0195 0.0986328ZM83.4961 0.0722656C84.3613 0.0722752 85.2305 0.147536 86.0957 0.294922C86.961 0.44225 87.7466 0.752351 88.4453 1.22461C89.1447 1.69681 89.7154 2.37689 90.1611 3.26465C90.6031 4.1525 90.8262 5.32407 90.8262 6.78223V15.6191C90.3122 15.7174 89.8512 15.7813 89.4355 15.8115C89.02 15.8418 88.6573 15.8564 88.3438 15.8564C88.0076 15.8564 87.6336 15.8418 87.2217 15.8115C86.8059 15.7814 86.3444 15.7174 85.8311 15.6191V7.31055C85.831 6.26782 85.6344 5.51967 85.2412 5.0625C84.8487 4.60932 84.2476 4.38281 83.4395 4.38281C83.2242 4.38282 82.9903 4.40184 82.7451 4.44336C82.499 4.48494 82.3441 4.52272 82.2871 4.56055V15.6152C81.774 15.7134 81.3131 15.7774 80.8975 15.8076C80.4817 15.8379 80.1184 15.8525 79.8047 15.8525C79.4686 15.8525 79.0945 15.8379 78.6826 15.8076C78.267 15.7774 77.8059 15.7134 77.292 15.6152V1.10352C77.9793 0.865492 78.8187 0.634822 79.8047 0.408203C80.7833 0.18531 82.0154 0.0722656 83.4961 0.0722656ZM13.4463 1.31445L7.24219 11.5986H12.8867C13.0227 12.4071 13.0947 13.0947 13.0947 13.6689C13.0947 13.9637 13.08 14.2662 13.0498 14.5723C13.0196 14.8782 12.966 15.2369 12.8867 15.6523H0.472656L0 14.7646L6.17676 4.41992H1.12207C1.02397 3.9856 0.95993 3.60797 0.929688 3.2832C0.899443 2.95824 0.883789 2.64816 0.883789 2.35352C0.883795 2.05899 0.899478 1.75701 0.929688 1.45117C0.959932 1.14512 1.02391 0.785735 1.12207 0.370117H13.1514L13.4463 1.31445ZM23.1709 8.875C22.4797 8.87503 21.9017 9.02183 21.4258 9.31641C20.9536 9.61109 20.7149 10.027 20.7148 10.5596C20.7148 10.9524 20.802 11.2663 20.9795 11.4893C21.157 11.7158 21.3801 11.8898 21.6445 12.0068C21.9089 12.1239 22.1961 12.2035 22.502 12.2451C22.8117 12.2867 23.0918 12.3057 23.3486 12.3057C23.5261 12.3057 23.783 12.2867 24.1152 12.2451C24.4515 12.2074 24.6978 12.1658 24.8564 12.1279V8.875H23.1709ZM39.3857 3.82715C39.2385 3.82716 39.0835 3.83859 38.9287 3.85742V8.25879H38.9248C39.0229 8.27768 39.1478 8.29238 39.2949 8.30371C39.4422 8.31504 39.5679 8.31934 39.666 8.31934C40.3533 8.31925 40.9196 8.14532 41.3652 7.80176C41.8073 7.45789 42.0303 6.87224 42.0303 6.04492C42.0303 5.33459 41.8073 4.79065 41.3652 4.40527C40.9232 4.02002 40.3753 3.82715 39.7256 3.82715H39.3857ZM56.1162 3.82715C55.9689 3.82716 55.814 3.8386 55.6592 3.85742V8.25879H55.6553C55.7534 8.27768 55.8782 8.29238 56.0254 8.30371C56.1727 8.31504 56.2982 8.31934 56.3965 8.31934C57.0837 8.31926 57.6501 8.14532 58.0957 7.80176C58.5377 7.45789 58.7617 6.87224 58.7617 6.04492C58.7617 5.33459 58.5377 4.79065 58.0957 4.40527C57.6537 4.02002 57.1057 3.82715 56.4561 3.82715H56.1162Z" fill="white"/>
</svg>
