<svg width="20" height="20" viewBox="0 0 20 20" fill="none" xmlns="http://www.w3.org/2000/svg">
<path d="M15.625 2.8125H4.375C3.9606 2.8125 3.56317 2.97712 3.27015 3.27015C2.97712 3.56317 2.8125 3.9606 2.8125 4.375V15.625C2.8125 16.0394 2.97712 16.4368 3.27015 16.7299C3.56317 17.0229 3.9606 17.1875 4.375 17.1875H15.625C16.0394 17.1875 16.4368 17.0229 16.7299 16.7299C17.0229 16.4368 17.1875 16.0394 17.1875 15.625V4.375C17.1875 3.9606 17.0229 3.56317 16.7299 3.27015C16.4368 2.97712 16.0394 2.8125 15.625 2.8125ZM10.9375 7.8125H15.3125V9.0625H10.9375V7.8125ZM10.9375 10.9375H15.3125V12.1875H10.9375V10.9375ZM15.3125 5.9375H10.9375V4.6875H15.3125V5.9375ZM4.6875 4.6875H9.0625V15.3125H4.6875V4.6875ZM10.9375 15.3125V14.0625H15.3125V15.3125H10.9375Z" fill="white"/>
</svg>
