<svg width="20" height="20" viewBox="0 0 20 20" fill="none" xmlns="http://www.w3.org/2000/svg">
<path d="M18.3195 8.67749L7.06328 1.79233C6.82722 1.64842 6.55721 1.56973 6.2808 1.56427C6.00439 1.55881 5.73148 1.62679 5.48992 1.76127C5.24837 1.89575 5.04682 2.09191 4.90585 2.32974C4.76488 2.56756 4.68953 2.83853 4.6875 3.11499V16.8853C4.68953 17.1618 4.76488 17.4327 4.90585 17.6706C5.04682 17.9084 5.24837 18.1045 5.48992 18.239C5.73148 18.3735 6.00439 18.4415 6.2808 18.436C6.55721 18.4306 6.82722 18.3519 7.06328 18.208L18.3195 11.3228C18.5465 11.1846 18.7341 10.9904 18.8643 10.7587C18.9945 10.5271 19.0628 10.2659 19.0628 10.0001C19.0628 9.73443 18.9945 9.47318 18.8643 9.24154C18.7341 9.0099 18.5465 8.81565 18.3195 8.67749ZM6.5625 16.3166V3.68374L16.8875 10.0001L6.5625 16.3166Z" fill="white"/>
</svg>
