<svg width="20" height="20" viewBox="0 0 20 20" fill="none" xmlns="http://www.w3.org/2000/svg">
<path d="M12.2867 1.65777C12.129 1.58068 11.9529 1.5494 11.7783 1.5675C11.6037 1.58559 11.4377 1.65233 11.2992 1.76011L5.92812 5.93746H2.5C2.0856 5.93746 1.68817 6.10208 1.39515 6.3951C1.10212 6.68813 0.9375 7.08555 0.9375 7.49996V12.5C0.9375 12.9144 1.10212 13.3118 1.39515 13.6048C1.68817 13.8978 2.0856 14.0625 2.5 14.0625H5.92812L11.2992 18.2398C11.4377 18.3476 11.6037 18.4144 11.7783 18.4324C11.9529 18.4505 12.1291 18.4193 12.2868 18.3422C12.4445 18.2651 12.5773 18.1453 12.6703 17.9964C12.7632 17.8475 12.8125 17.6755 12.8125 17.5V2.49996C12.8125 2.32443 12.7632 2.15244 12.6702 2.00355C12.5773 1.85466 12.4444 1.73485 12.2867 1.65777ZM2.8125 7.81246H5.3125V12.1875H2.8125V7.81246ZM10.9375 15.5828L7.1875 12.6664V7.33355L10.9375 4.41714V15.5828ZM16.5625 9.99996C16.5626 10.8374 16.257 11.6461 15.7031 12.2742C15.6217 12.3665 15.5228 12.4419 15.4122 12.496C15.3016 12.5502 15.1814 12.582 15.0586 12.5897C14.9357 12.5974 14.8125 12.5808 14.696 12.5408C14.5795 12.5009 14.472 12.4384 14.3797 12.357C14.2874 12.2755 14.212 12.1767 14.1578 12.0661C14.1037 11.9555 14.0719 11.8353 14.0642 11.7124C14.0565 11.5895 14.0731 11.4663 14.113 11.3498C14.1529 11.2334 14.2154 11.1259 14.2969 11.0335C14.548 10.7483 14.6866 10.3812 14.6866 10.0011C14.6866 9.62105 14.548 9.254 14.2969 8.96871C14.1408 8.78111 14.064 8.54003 14.0828 8.29671C14.1017 8.05338 14.2146 7.827 14.3977 7.66565C14.5809 7.50431 14.8197 7.42074 15.0634 7.43268C15.3072 7.44463 15.5367 7.55117 15.7031 7.72964C16.2565 8.35649 16.5621 9.16378 16.5625 9.99996ZM19.6875 9.99996C19.6885 11.6144 19.0934 13.1723 18.0164 14.375C17.8506 14.5603 17.618 14.6722 17.3698 14.686C17.1215 14.6999 16.8779 14.6145 16.6926 14.4488C16.5072 14.283 16.3953 14.0504 16.3815 13.8022C16.3676 13.5539 16.453 13.3103 16.6187 13.125C17.3874 12.2655 17.8124 11.153 17.8124 9.99996C17.8124 8.84694 17.3874 7.73436 16.6187 6.87496C16.5333 6.7838 16.467 6.67649 16.4236 6.55933C16.3802 6.44217 16.3607 6.31752 16.3662 6.19271C16.3717 6.06789 16.4021 5.94544 16.4555 5.83253C16.509 5.71963 16.5845 5.61855 16.6776 5.53524C16.7707 5.45193 16.8795 5.38807 16.9977 5.34741C17.1158 5.30675 17.2409 5.29011 17.3655 5.29846C17.4902 5.30682 17.6119 5.34001 17.7235 5.39608C17.8352 5.45215 17.9345 5.52996 18.0156 5.62496C19.0929 6.82751 19.6882 8.38545 19.6875 9.99996Z" fill="white"/>
</svg>
